<svg xmlns="http://www.w3.org/2000/svg" xmlns:xlink="http://www.w3.org/1999/xlink" width="500" zoomAndPan="magnify" viewBox="0 0 375 374.999991" height="500" preserveAspectRatio="xMidYMid meet" version="1.0"><defs><clipPath id="6c75d27174"><path d="M 17.34375 150 L 39 150 L 39 185 L 17.34375 185 Z M 17.34375 150 " clip-rule="nonzero"/></clipPath><clipPath id="ab24fce6d4"><path d="M 34.453125 0 L 357.820312 0 L 357.820312 375 L 34.453125 375 Z M 34.453125 0 " clip-rule="nonzero"/></clipPath></defs><g clip-path="url(#6c75d27174)"><path fill="#60941a" d="M 38.496094 184.679688 C 38.164062 177.152344 36.542969 169.785156 32.824219 163.308594 C 29.109375 156.832031 24.300781 152.9375 17.535156 150.257812 C 17.414062 157.957031 18.96875 165.898438 22.765625 172.453125 C 26.5625 179.003906 31.566406 182.503906 38.496094 184.679688 " fill-opacity="1" fill-rule="nonzero"/></g><path fill="#60941a" d="M 44.214844 216.148438 C 43.117188 208.648438 40.496094 201.320312 36.046875 195.375 C 31.601562 189.429688 26.570312 185.707031 19.679688 183.578125 C 20.140625 191.402344 22.515625 199.214844 27.125 205.335938 C 31.730469 211.460938 37.121094 214.433594 44.214844 216.148438 " fill-opacity="1" fill-rule="nonzero"/><path fill="#60941a" d="M 53.648438 250.03125 C 51.660156 242.421875 47.972656 234.78125 43.011719 228.925781 C 38.054688 223.066406 32.894531 219.898438 25.667969 218.214844 C 26.894531 226.28125 29.882812 233.921875 35.160156 239.976562 C 40.441406 246.03125 46.050781 248.777344 53.648438 250.03125 " fill-opacity="1" fill-rule="nonzero"/><path fill="#60941a" d="M 54.304688 262.585938 C 48.515625 257.382812 42.570312 254.210938 35.085938 253.097656 C 37.273438 261.246094 41.664062 269.09375 47.960938 274.421875 C 54.253906 279.753906 60.410156 282.089844 68.308594 282.195312 C 65.144531 274.816406 60.089844 267.789062 54.304688 262.585938 " fill-opacity="1" fill-rule="nonzero"/><path fill="#60941a" d="M 69.554688 293.476562 C 63.328125 288.914062 56.859375 286.5 49.375 286.230469 C 52.5 293.894531 57.496094 300.996094 63.988281 305.734375 C 70.480469 310.46875 76.394531 312.113281 84.042969 311.785156 C 81.074219 304.398438 75.78125 298.039062 69.554688 293.476562 " fill-opacity="1" fill-rule="nonzero"/><g clip-path="url(#ab24fce6d4)"><path fill="#60941a" d="M 254.351562 348.113281 C 249.660156 350.300781 244.933594 352.132812 240.195312 353.761719 C 253.515625 336.1875 268.410156 319.710938 284.566406 304.71875 C 299.441406 290.917969 315.507812 278.285156 332.421875 267.019531 C 317.332031 303.675781 287.378906 332.726562 254.351562 348.113281 Z M 177.890625 361.46875 C 187.164062 348.742188 197.496094 336.8125 208.746094 326.039062 C 243 293.242188 286.929688 269.566406 335.992188 257.34375 C 335.898438 257.636719 335.808594 257.929688 335.710938 258.21875 C 316.199219 270.664062 297.71875 284.898438 280.765625 300.628906 C 262.492188 317.585938 245.804688 336.402344 231.148438 356.5625 C 212.929688 361.546875 194.777344 362.789062 177.890625 361.46875 Z M 137.710938 330.011719 C 156.363281 314.953125 176.511719 301.738281 197.625 290.730469 C 240.90625 268.167969 288.117188 254.6875 338.019531 250.570312 C 337.972656 250.753906 337.917969 250.9375 337.867188 251.121094 C 286.558594 263.328125 240.589844 287.820312 204.882812 322.011719 C 192.601562 333.769531 181.34375 346.839844 171.390625 360.851562 C 162.132812 359.75 153.351562 357.886719 145.214844 355.5 C 142.503906 347.066406 140.007812 338.5625 137.710938 330.011719 Z M 207.078125 259.988281 C 249.292969 247.277344 293.238281 242.246094 337.824219 244.988281 C 287.078125 249.140625 239.0625 262.835938 195.042969 285.78125 C 174.339844 296.574219 154.558594 309.472656 136.167969 324.113281 C 133.578125 313.996094 131.285156 303.804688 129.296875 293.546875 C 153.90625 279.414062 180.066406 268.117188 207.078125 259.988281 Z M 201.171875 62.894531 C 197.953125 62.855469 195.066406 62.972656 192.585938 63.15625 C 204.871094 64.652344 221.507812 68 239.636719 76.042969 C 246.765625 79.207031 343.183594 123.859375 342.703125 216.386719 C 342.664062 224.3125 341.898438 232.050781 340.519531 239.578125 C 294.457031 236.464844 249.0625 241.519531 205.464844 254.644531 C 178.660156 262.714844 152.6875 273.871094 128.195312 287.769531 C 125.769531 274.558594 123.960938 261.269531 122.351562 247.871094 C 122.09375 245.707031 121.867188 243.546875 121.632812 241.382812 C 131.125 235.519531 137.769531 227.800781 142.773438 217.351562 C 148.0625 206.308594 149.882812 193.40625 149.3125 180.96875 C 137.8125 185.339844 129.953125 191.757812 124.628906 203.558594 C 122.113281 209.140625 120.582031 215.207031 119.824219 221.429688 C 119.480469 216.554688 119.1875 211.675781 119.027344 206.789062 C 118.796875 200.386719 118.753906 193.984375 118.863281 187.578125 C 129.1875 182.957031 136.65625 176.296875 143.039062 166.441406 C 149.710938 156.132812 153.789062 143.980469 155.410156 131.558594 C 143.472656 134.875 134.335938 139.578125 126.859375 150.421875 C 123.71875 154.976562 121.472656 160.035156 119.921875 165.339844 C 120.679688 155.644531 121.808594 145.976562 123.316406 136.367188 C 134.414062 133.320312 143.578125 127.433594 151.316406 118.578125 C 159.316406 109.417969 164.53125 98.257812 167.207031 86.273438 C 155.058594 88.191406 145.929688 92.035156 137.226562 101.507812 C 132.472656 106.683594 128.898438 112.859375 126.363281 119.496094 C 128.492188 109.066406 131.074219 98.730469 134.074219 88.511719 C 145.589844 86.636719 155.136719 81.90625 164.207031 74.101562 C 173.398438 66.1875 179.882812 55.863281 183.652344 44.117188 C 171.601562 44.976562 161.574219 48.304688 151.957031 56.429688 C 146.539062 61.007812 142.222656 66.664062 139.007812 72.957031 C 139.394531 71.816406 139.765625 70.667969 140.167969 69.53125 C 141.949219 64.492188 143.867188 59.492188 145.855469 54.523438 C 154.15625 47.96875 160.78125 40.398438 166.441406 31.328125 C 172.511719 21.597656 175.492188 11.46875 174.628906 0 C 164.398438 5.933594 155.398438 13.359375 149.179688 23.503906 C 143.574219 32.640625 142.351562 42.390625 143.5625 52.578125 C 141.035156 58.714844 138.609375 64.898438 136.394531 71.175781 C 121.066406 114.605469 113.554688 160.820312 114.839844 206.929688 C 115.171875 220.796875 116.320312 234.640625 117.855469 248.402344 C 119.363281 262.105469 121.121094 275.890625 123.550781 289.539062 C 127.328125 311.132812 132.488281 332.496094 138.867188 353.484375 C 135.976562 352.496094 133.152344 351.464844 130.476562 350.351562 C 126.359375 348.644531 122.417969 346.742188 118.652344 344.773438 C 106.914062 331.371094 96.339844 316.964844 87.085938 301.726562 C 91.449219 294.796875 93.398438 287.515625 93.429688 278.960938 C 93.464844 269.714844 90.527344 260.3125 86.109375 252.007812 C 79.671875 258.710938 76.386719 265.636719 76.574219 275.417969 C 76.644531 278.980469 77.203125 282.550781 78.136719 286.058594 C 75.976562 281.972656 73.890625 277.84375 71.917969 273.660156 C 70.636719 270.953125 69.425781 268.207031 68.222656 265.460938 C 73.285156 259.226562 76.007812 252.503906 77.117188 244.121094 C 78.335938 234.921875 77.183594 225.308594 74.269531 216.304688 C 67.191406 222.429688 62.476562 228.59375 60.886719 238.417969 C 60.488281 240.875 60.351562 243.351562 60.445312 245.828125 C 58.464844 240.28125 56.625 234.683594 54.96875 229.03125 C 60.96875 223.53125 64.988281 216.851562 67.269531 208.765625 C 69.765625 199.925781 69.707031 190.617188 67.65625 181.570312 C 59.980469 186.808594 54.992188 192.390625 52.121094 201.671875 C 51.121094 204.898438 50.59375 208.25 50.429688 211.640625 C 49.011719 205.496094 47.792969 199.308594 46.757812 193.089844 C 53.464844 188.199219 58.175781 182.101562 61.664062 174.230469 C 65.375 165.855469 66.457031 156.707031 65.230469 147.46875 C 57.277344 151.953125 51.511719 157.46875 47.578125 166.128906 C 46.035156 169.527344 45.023438 173.113281 44.488281 176.777344 C 44.0625 173.027344 43.722656 169.265625 43.441406 165.5 C 46.601562 158.753906 48.464844 151.84375 49.332031 144.308594 C 50.328125 135.699219 49.082031 127.820312 44.777344 120.269531 C 39.714844 127.628906 35.976562 135.613281 35.015625 144.550781 C 34.152344 152.578125 36.457031 159.617188 40.566406 166.164062 C 41.226562 176.277344 42.359375 186.359375 44.019531 196.351562 C 48.492188 223.617188 56.5625 250.296875 68.121094 275.445312 C 78.214844 297.496094 90.96875 318.292969 105.914062 337.398438 C 92.304688 328.757812 83.457031 320.742188 83.402344 320.8125 C 82.714844 321.691406 94.808594 335.863281 115.6875 349.34375 C 115.816406 349.492188 115.9375 349.644531 116.066406 349.796875 C 120.925781 352.921875 125.953125 355.769531 131.148438 358.308594 C 131.078125 358.234375 131.011719 358.160156 130.9375 358.089844 C 134.445312 359.863281 138.078125 361.582031 141.898438 363.164062 C 141.898438 363.164062 143.335938 363.757812 145.902344 364.679688 C 146.804688 365.015625 147.691406 365.390625 148.601562 365.703125 C 148.589844 365.675781 148.582031 365.644531 148.570312 365.613281 C 159.035156 369.175781 180.386719 375.328125 202.195312 374.996094 C 262.179688 374.082031 358.148438 318.386719 357.820312 218.433594 C 357.492188 118.378906 261 63.640625 201.171875 62.894531 " fill-opacity="1" fill-rule="nonzero"/></g><path fill="#60941a" d="M 129.964844 74.3125 C 133.84375 65.113281 136.082031 55.386719 135.3125 45.535156 C 134.539062 35.683594 131.003906 28.300781 124.429688 21.261719 C 119.917969 30.402344 117.269531 40.78125 118.09375 50.769531 C 118.917969 60.757812 122.914062 67.777344 129.964844 74.3125 " fill-opacity="1" fill-rule="nonzero"/><path fill="#60941a" d="M 118.953125 115.183594 C 121.894531 105.59375 122.917969 95.339844 120.972656 85.710938 C 119.027344 76.078125 115.121094 68.773438 108.089844 62.328125 C 104.203125 71.945312 102.609375 82.632812 104.648438 92.566406 C 106.683594 102.5 111.441406 109.109375 118.953125 115.183594 " fill-opacity="1" fill-rule="nonzero"/><path fill="#60941a" d="M 111.007812 161.050781 C 112.949219 150.820312 112.875 139.59375 110.269531 129.777344 C 107.660156 119.964844 103.285156 113.25 95.601562 107.144531 C 92.488281 117.484375 91.730469 128.3125 94.605469 138.546875 C 97.484375 148.777344 102.632812 155.246094 111.007812 161.050781 " fill-opacity="1" fill-rule="nonzero"/><path fill="#60941a" d="M 110.289062 207.824219 C 110.691406 197.203125 108.636719 185.933594 104.667969 176.433594 C 100.699219 166.929688 95.386719 159.765625 87.070312 154.195312 C 85.0625 165.179688 85.863281 177.054688 90.367188 186.992188 C 94.871094 196.933594 100.910156 203.21875 110.289062 207.824219 " fill-opacity="1" fill-rule="nonzero"/><path fill="#60941a" d="M 112.320312 252.125 C 112.960938 241.609375 110.242188 231 105.382812 222.019531 C 100.523438 213.035156 94.15625 206.480469 85.363281 201.914062 C 84.75 212.851562 86.691406 224.175781 91.769531 233.519531 C 96.851562 242.867188 102.988281 248.179688 112.320312 252.125 " fill-opacity="1" fill-rule="nonzero"/></svg>